<svg xmlns="http://www.w3.org/2000/svg" viewBox="0 0 25 28" width="25" height="28">
	<style>
		tspan { white-space:pre }
		.shp0 { fill: #ffffff } 
	</style>
	<g id="1">
		<path id="Forma 1 copy 6" class="shp0" d="M2.55 22.18L6.4 22.18L6.4 25.45C6.4 25.61 6.45 25.74 6.55 25.85C6.66 25.95 6.79 26 6.95 26L9.82 26C9.97 26 10.1 25.95 10.21 25.85C10.32 25.74 10.37 25.61 10.37 25.45L10.37 22.18L19.05 22.18C19.21 22.18 19.34 22.13 19.45 22.03C19.55 21.93 19.6 21.8 19.6 21.64L19.6 19.45C19.6 19.3 19.55 19.17 19.45 19.06C19.34 18.96 19.21 18.91 19.05 18.91L10.37 18.91L10.37 16.9L16.21 16.9C18.51 16.9 20.38 16.21 21.83 14.82C23.27 13.43 24 11.64 24 9.45C24 7.26 23.27 5.47 21.83 4.08C20.38 2.69 18.51 2 16.21 2L6.95 2C6.79 2 6.66 2.05 6.55 2.15C6.45 2.26 6.4 2.39 6.4 2.54L6.4 13.27L2.55 13.27C2.39 13.27 2.26 13.32 2.15 13.43C2.05 13.54 2 13.67 2 13.81L2 16.35C2 16.51 2.05 16.64 2.15 16.74C2.26 16.85 2.39 16.9 2.55 16.9L6.4 16.9L6.4 18.91L2.55 18.91C2.39 18.91 2.26 18.96 2.15 19.06C2.05 19.17 2 19.3 2 19.45L2 21.64C2 21.8 2.05 21.93 2.15 22.03C2.26 22.13 2.39 22.18 2.55 22.18ZM10.37 5.63L15.87 5.63C17.08 5.63 18.06 5.98 18.81 6.69C19.55 7.39 19.93 8.31 19.93 9.45C19.93 10.59 19.55 11.51 18.81 12.21C18.06 12.92 17.08 13.27 15.87 13.27L10.37 13.27L10.37 5.63Z" />
	</g>
</svg>