<svg xmlns="http://www.w3.org/2000/svg" viewBox="0 0 25 27" width="25" height="27">
	<style>
		tspan { white-space:pre }
		.shp0 { fill: #ffffff } 
	</style>
	<g id="1">
		<path id="Forma 1 copy 5" class="shp0" d="M1.55 21.18L5.4 21.18L5.4 24.45C5.4 24.61 5.45 24.74 5.55 24.85C5.66 24.95 5.79 25 5.95 25L8.82 25C8.97 25 9.1 24.95 9.21 24.85C9.32 24.74 9.37 24.61 9.37 24.45L9.37 21.18L18.05 21.18C18.21 21.18 18.34 21.13 18.45 21.03C18.55 20.93 18.6 20.8 18.6 20.64L18.6 18.45C18.6 18.3 18.55 18.17 18.45 18.06C18.34 17.96 18.21 17.91 18.05 17.91L9.37 17.91L9.37 15.9L15.21 15.9C17.51 15.9 19.38 15.21 20.83 13.82C22.28 12.43 23 10.64 23 8.45C23 6.26 22.28 4.47 20.83 3.08C19.38 1.69 17.51 1 15.21 1L5.95 1C5.79 1 5.66 1.05 5.55 1.15C5.45 1.26 5.4 1.39 5.4 1.54L5.4 12.27L1.55 12.27C1.39 12.27 1.26 12.32 1.15 12.43C1.05 12.54 1 12.66 1 12.81L1 15.35C1 15.51 1.05 15.64 1.15 15.74C1.26 15.85 1.39 15.9 1.55 15.9L5.4 15.9L5.4 17.91L1.55 17.91C1.39 17.91 1.26 17.96 1.15 18.06C1.05 18.17 1 18.29 1 18.45L1 20.64C1 20.8 1.05 20.93 1.15 21.03C1.26 21.13 1.39 21.18 1.55 21.18ZM9.37 4.63L14.87 4.63C16.08 4.63 17.06 4.98 17.81 5.69C18.55 6.39 18.93 7.31 18.93 8.45C18.93 9.59 18.55 10.51 17.81 11.21C17.06 11.92 16.08 12.27 14.87 12.27L9.37 12.27L9.37 4.63Z" />
	</g>
</svg>