<svg xmlns="http://www.w3.org/2000/svg" viewBox="0 0 90 31" width="90" height="31">
	<style>
		tspan { white-space:pre }
		.shp0 { fill: #000000;stroke: #000000 } 
		.txt1 { font-size: 34px;line-height: 24px;fill: #0b0b0b;font-weight: 300;font-family: "Roboto-Light", "Roboto" } 
		.shp2 { fill: #ea7845 } 
	</style>
	<g id="1">
		<g id="форма">
			<g id="цена">
				<path id="Shape 1 copy" class="shp0" d="M77.65 17.14L77.65 17.13C79.62 17.13 81.47 16.39 82.86 15.03C84.24 13.69 85 11.92 85 10.05C85 8.18 84.24 6.43 82.86 5.11C81.48 3.79 79.63 3.04 77.66 3C77.65 3 77.65 3 77.65 3L72.31 3C72.09 3 71.9 3.18 71.9 3.39L71.9 16.35L69.41 16.35C69.19 16.35 69 16.53 69 16.74C69 16.96 69.19 17.14 69.41 17.14L71.9 17.14L71.9 20.43L69.41 20.43C69.19 20.43 69 20.61 69 20.83C69 21.04 69.19 21.22 69.41 21.22L71.9 21.22L71.9 27.61C71.9 27.82 72.09 28 72.31 28C72.54 28 72.73 27.82 72.73 27.61L72.73 21.22L81.25 21.22C81.47 21.22 81.66 21.04 81.66 20.83C81.66 20.61 81.47 20.43 81.25 20.43L72.73 20.43L72.73 17.14L77.65 17.14L77.65 17.14ZM72.73 3.78L72.73 3.78L77.65 3.78C81.31 3.86 84.18 6.61 84.18 10.04C84.18 13.51 81.25 16.34 77.65 16.34L72.73 16.34L72.73 3.78ZM77.65 17.14L77.65 17.13C79.62 17.13 81.47 16.39 82.86 15.03C84.24 13.69 85 11.92 85 10.05C85 8.18 84.24 6.43 82.86 5.11C81.48 3.79 79.63 3.04 77.66 3C77.65 3 77.65 3 77.65 3L72.31 3C72.09 3 71.9 3.18 71.9 3.39L71.9 16.35L69.41 16.35C69.19 16.35 69 16.53 69 16.74C69 16.96 69.19 17.14 69.41 17.14L71.9 17.14L71.9 20.43L69.41 20.43C69.19 20.43 69 20.61 69 20.83C69 21.04 69.19 21.22 69.41 21.22L71.9 21.22L71.9 27.61C71.9 27.82 72.09 28 72.31 28C72.54 28 72.73 27.82 72.73 27.61L72.73 21.22L81.25 21.22C81.47 21.22 81.66 21.04 81.66 20.83C81.66 20.61 81.47 20.43 81.25 20.43L72.73 20.43L72.73 17.14L77.65 17.14L77.65 17.14ZM72.73 3.78L72.73 3.78L77.65 3.78C81.31 3.86 84.18 6.61 84.18 10.04C84.18 13.51 81.25 16.34 77.65 16.34L72.73 16.34L72.73 3.78Z" />
				<text id="918" style="transform: matrix(1,0,0,1,6.914,27.035)" >
					<tspan x="0" y="0" class="txt1">918</tspan>
				</text>
				<path id="Rectangle 21 copy" class="shp2" d="M2.05 1.98L88.12 24.03L87.95 25.02L1.88 2.97L2.05 1.98ZM1.88 24.03L87.95 1.98L88.12 2.97L2.05 25.02L1.88 24.03Z" />
			</g>
		</g>
	</g>
</svg>